<?xml version="1.0" standalone="no"?>
<!DOCTYPE svg PUBLIC "-//W3C//DTD SVG 20010904//EN"
 "http://www.w3.org/TR/2001/REC-SVG-20010904/DTD/svg10.dtd">
<svg version="1.0" xmlns="http://www.w3.org/2000/svg"
 width="500.000000pt" height="500.000000pt" viewBox="0 0 500.000000 500.000000"
 preserveAspectRatio="xMidYMid meet">

<g transform="translate(0.000000,500.000000) scale(0.100000,-0.100000)"
fill="#000000" stroke="none">
<path d="M808 2978 c-3 -35 0 -58 9 -68 11 -12 13 -6 13 38 l0 52 88 0 c79 1
85 2 68 15 -14 10 -45 15 -97 15 l-77 0 -4 -52z"/>
<path d="M870 2500 l0 -470 1630 0 1630 0 0 470 0 470 -1630 0 -1630 0 0 -470z
m3200 0 l0 -410 -1570 0 -1570 0 0 410 0 410 1570 0 1570 0 0 -410z"/>
<path d="M1330 2760 c0 -44 3 -50 33 -69 18 -11 44 -39 57 -63 21 -36 25 -56
25 -128 0 -72 -4 -92 -25 -130 -14 -25 -40 -54 -57 -65 -29 -18 -32 -25 -33
-67 0 -44 2 -48 23 -48 35 0 123 48 152 82 107 127 103 338 -9 456 -37 40 -69
58 -125 71 l-41 9 0 -48z"/>
<path d="M1855 2791 c-45 -20 -92 -70 -101 -107 -4 -14 -4 -47 -2 -75 6 -61
30 -88 112 -130 l61 -30 3 54 c3 50 0 57 -29 86 -25 25 -30 37 -25 59 4 15 18
36 31 47 20 17 25 30 25 68 0 54 -10 58 -75 28z"/>
<path d="M1980 2763 l0 -50 48 -10 c26 -6 55 -14 65 -18 13 -6 21 2 37 36 l19
44 -35 18 c-19 10 -57 21 -85 24 l-49 6 0 -50z"/>
<path d="M3122 2795 c-56 -16 -112 -42 -112 -52 0 -3 9 -21 21 -39 l20 -33 41
21 c23 12 65 24 94 26 46 4 56 1 78 -21 26 -26 26 -26 26 -201 l0 -175 -26
-20 c-15 -12 -33 -21 -40 -21 -10 0 -14 -13 -14 -40 0 -22 5 -40 11 -40 17 0
52 20 80 46 l25 24 14 -26 c13 -24 57 -54 78 -54 5 0 15 14 22 30 10 25 10 36
0 58 -8 17 -16 95 -20 212 -9 222 -20 259 -93 296 -42 22 -143 26 -205 9z"/>
<path d="M3900 2803 c-14 -2 -40 -9 -57 -14 -32 -10 -33 -12 -33 -66 0 -46 3
-54 16 -49 9 3 47 6 85 6 l69 0 0 65 c0 71 0 71 -80 58z"/>
<path d="M1185 2779 c-103 -51 -158 -145 -159 -274 -1 -98 20 -165 71 -225 38
-44 120 -90 161 -90 20 0 22 5 22 48 0 43 -3 48 -30 60 -18 8 -42 33 -58 60
-24 42 -27 57 -27 137 0 106 20 156 78 194 33 22 37 29 37 68 0 40 -2 43 -27
43 -16 -1 -46 -10 -68 -21z"/>
<path d="M2494 2781 c-95 -43 -154 -137 -162 -257 -10 -152 61 -278 181 -323
57 -22 67 -16 67 38 0 45 -3 51 -33 69 -80 47 -107 226 -49 326 10 17 32 40
50 51 28 18 31 25 32 68 0 42 -2 47 -22 47 -13 0 -41 -9 -64 -19z"/>
<path d="M2632 2753 c3 -44 5 -47 38 -56 19 -5 46 -17 61 -28 l27 -19 25 34
26 33 -27 25 c-37 35 -85 58 -122 58 -31 0 -31 0 -28 -47z"/>
<path d="M3640 2495 l0 -305 60 0 60 0 0 289 c0 159 -3 296 -6 305 -5 12 -20
16 -60 16 l-54 0 0 -305z"/>
<path d="M3108 2550 c-93 -28 -143 -94 -142 -186 1 -102 51 -163 143 -172 l51
-5 0 39 c-1 33 -6 42 -33 59 -24 15 -34 31 -41 61 -15 74 33 132 118 141 45 5
46 7 46 39 l0 34 -57 -1 c-32 0 -70 -4 -85 -9z"/>
<path d="M1980 2487 c0 -51 2 -54 35 -70 37 -18 55 -58 38 -86 -5 -9 -24 -23
-41 -31 -29 -14 -32 -19 -32 -64 l0 -48 31 6 c53 10 99 37 127 74 23 30 27 45
27 98 0 56 -3 66 -30 95 -27 28 -120 79 -145 79 -6 0 -10 -24 -10 -53z"/>
<path d="M2715 2320 c-16 -11 -42 -22 -57 -26 -26 -5 -28 -9 -28 -55 0 -44 2
-49 23 -49 32 1 98 33 124 62 l23 24 -23 32 c-12 17 -24 32 -27 32 -3 0 -18
-9 -35 -20z"/>
<path d="M1776 2281 c-14 -22 -26 -42 -26 -45 0 -11 104 -46 139 -46 l41 0 0
43 c0 42 -1 43 -47 58 -27 9 -56 19 -65 23 -13 6 -23 -2 -42 -33z"/>
<path d="M4162 2050 c0 -14 2 -19 5 -12 2 6 2 18 0 25 -3 6 -5 1 -5 -13z"/>
</g>
</svg>
